solid Part43_Default_sldprt
   facet normal -1.000000e+00 0.000000e+00 0.000000e+00
      outer loop
         vertex -2.000000e+01 1.387779e-14 -7.640000e+00
         vertex -2.000000e+01 1.387779e-14 7.640000e+00
         vertex -2.000000e+01 3.620000e+01 -7.640000e+00
      endloop
   endfacet
   facet normal -1.000000e+00 0.000000e+00 0.000000e+00
      outer loop
         vertex -2.000000e+01 3.620000e+01 -7.640000e+00
         vertex -2.000000e+01 1.387779e-14 7.640000e+00
         vertex -2.000000e+01 3.620000e+01 7.640000e+00
      endloop
   endfacet
   facet normal 0.000000e+00 0.000000e+00 1.000000e+00
      outer loop
         vertex -1.764000e+01 1.387779e-14 1.000000e+01
         vertex 1.764000e+01 1.387779e-14 1.000000e+01
         vertex -1.764000e+01 3.620000e+01 1.000000e+01
      endloop
   endfacet
   facet normal -0.000000e+00 0.000000e+00 1.000000e+00
      outer loop
         vertex -1.764000e+01 3.620000e+01 1.000000e+01
         vertex 1.764000e+01 1.387779e-14 1.000000e+01
         vertex 1.764000e+01 3.620000e+01 1.000000e+01
      endloop
   endfacet
   facet normal 1.000000e+00 0.000000e+00 -0.000000e+00
      outer loop
         vertex 2.000000e+01 3.620000e+01 -7.640000e+00
         vertex 2.000000e+01 3.620000e+01 7.640000e+00
         vertex 2.000000e+01 1.387779e-14 -7.640000e+00
      endloop
   endfacet
   facet normal 1.000000e+00 0.000000e+00 0.000000e+00
      outer loop
         vertex 2.000000e+01 1.387779e-14 -7.640000e+00
         vertex 2.000000e+01 3.620000e+01 7.640000e+00
         vertex 2.000000e+01 1.387779e-14 7.640000e+00
      endloop
   endfacet
   facet normal 0.000000e+00 0.000000e+00 -1.000000e+00
      outer loop
         vertex -1.764000e+01 3.620000e+01 -1.000000e+01
         vertex 1.764000e+01 3.620000e+01 -1.000000e+01
         vertex -1.764000e+01 1.387779e-14 -1.000000e+01
      endloop
   endfacet
   facet normal 0.000000e+00 0.000000e+00 -1.000000e+00
      outer loop
         vertex -1.764000e+01 1.387779e-14 -1.000000e+01
         vertex 1.764000e+01 3.620000e+01 -1.000000e+01
         vertex 1.764000e+01 1.387779e-14 -1.000000e+01
      endloop
   endfacet
   facet normal 0.000000e+00 1.000000e+00 0.000000e+00
      outer loop
         vertex -1.997094e+01 3.620000e+01 8.009185e+00
         vertex -1.988449e+01 3.620000e+01 8.369280e+00
         vertex -1.764000e+01 3.620000e+01 1.000000e+01
      endloop
   endfacet
   facet normal -0.000000e+00 1.000000e+00 0.000000e+00
      outer loop
         vertex -2.000000e+01 3.620000e+01 7.640000e+00
         vertex 2.000000e+01 3.620000e+01 7.640000e+00
         vertex -2.000000e+01 3.620000e+01 -7.640000e+00
      endloop
   endfacet
   facet normal 0.000000e+00 1.000000e+00 0.000000e+00
      outer loop
         vertex -2.000000e+01 3.620000e+01 -7.640000e+00
         vertex 2.000000e+01 3.620000e+01 7.640000e+00
         vertex 2.000000e+01 3.620000e+01 -7.640000e+00
      endloop
   endfacet
   facet normal 0.000000e+00 1.000000e+00 0.000000e+00
      outer loop
         vertex -1.836928e+01 3.620000e+01 -9.884493e+00
         vertex -1.871142e+01 3.620000e+01 -9.742775e+00
         vertex -1.974278e+01 3.620000e+01 -8.711417e+00
      endloop
   endfacet
   facet normal 0.000000e+00 1.000000e+00 0.000000e+00
      outer loop
         vertex 1.930877e+01 3.620000e+01 9.308772e+00
         vertex 1.764000e+01 3.620000e+01 1.000000e+01
         vertex 1.800919e+01 3.620000e+01 9.970944e+00
      endloop
   endfacet
   facet normal 0.000000e+00 1.000000e+00 0.000000e+00
      outer loop
         vertex 1.930877e+01 3.620000e+01 9.308772e+00
         vertex 1.954928e+01 3.620000e+01 9.027173e+00
         vertex 1.764000e+01 3.620000e+01 1.000000e+01
      endloop
   endfacet
   facet normal 0.000000e+00 1.000000e+00 0.000000e+00
      outer loop
         vertex 1.764000e+01 3.620000e+01 1.000000e+01
         vertex 1.954928e+01 3.620000e+01 9.027173e+00
         vertex 1.974278e+01 3.620000e+01 8.711417e+00
      endloop
   endfacet
   facet normal 0.000000e+00 1.000000e+00 0.000000e+00
      outer loop
         vertex 1.764000e+01 3.620000e+01 1.000000e+01
         vertex 1.974278e+01 3.620000e+01 8.711417e+00
         vertex 1.988449e+01 3.620000e+01 8.369280e+00
      endloop
   endfacet
   facet normal 0.000000e+00 1.000000e+00 0.000000e+00
      outer loop
         vertex 1.988449e+01 3.620000e+01 8.369280e+00
         vertex 1.997094e+01 3.620000e+01 8.009185e+00
         vertex 1.764000e+01 3.620000e+01 1.000000e+01
      endloop
   endfacet
   facet normal 0.000000e+00 1.000000e+00 0.000000e+00
      outer loop
         vertex 1.764000e+01 3.620000e+01 1.000000e+01
         vertex 1.997094e+01 3.620000e+01 8.009185e+00
         vertex 2.000000e+01 3.620000e+01 7.640000e+00
      endloop
   endfacet
   facet normal 0.000000e+00 1.000000e+00 0.000000e+00
      outer loop
         vertex 1.764000e+01 3.620000e+01 1.000000e+01
         vertex 2.000000e+01 3.620000e+01 7.640000e+00
         vertex -1.764000e+01 3.620000e+01 1.000000e+01
      endloop
   endfacet
   facet normal 0.000000e+00 1.000000e+00 0.000000e+00
      outer loop
         vertex -1.764000e+01 3.620000e+01 1.000000e+01
         vertex 2.000000e+01 3.620000e+01 7.640000e+00
         vertex -2.000000e+01 3.620000e+01 7.640000e+00
      endloop
   endfacet
   facet normal 0.000000e+00 1.000000e+00 0.000000e+00
      outer loop
         vertex -1.764000e+01 3.620000e+01 1.000000e+01
         vertex -2.000000e+01 3.620000e+01 7.640000e+00
         vertex -1.997094e+01 3.620000e+01 8.009185e+00
      endloop
   endfacet
   facet normal 0.000000e+00 1.000000e+00 0.000000e+00
      outer loop
         vertex -1.988449e+01 3.620000e+01 8.369280e+00
         vertex -1.974278e+01 3.620000e+01 8.711417e+00
         vertex -1.764000e+01 3.620000e+01 1.000000e+01
      endloop
   endfacet
   facet normal 0.000000e+00 1.000000e+00 0.000000e+00
      outer loop
         vertex -1.764000e+01 3.620000e+01 1.000000e+01
         vertex -1.974278e+01 3.620000e+01 8.711417e+00
         vertex -1.954928e+01 3.620000e+01 9.027173e+00
      endloop
   endfacet
   facet normal 0.000000e+00 1.000000e+00 0.000000e+00
      outer loop
         vertex -1.764000e+01 3.620000e+01 1.000000e+01
         vertex -1.954928e+01 3.620000e+01 9.027173e+00
         vertex -1.800919e+01 3.620000e+01 9.970944e+00
      endloop
   endfacet
   facet normal 0.000000e+00 1.000000e+00 0.000000e+00
      outer loop
         vertex -1.800919e+01 3.620000e+01 9.970944e+00
         vertex -1.954928e+01 3.620000e+01 9.027173e+00
         vertex -1.930877e+01 3.620000e+01 9.308772e+00
      endloop
   endfacet
   facet normal 0.000000e+00 1.000000e+00 0.000000e+00
      outer loop
         vertex -1.930877e+01 3.620000e+01 9.308772e+00
         vertex -1.902717e+01 3.620000e+01 9.549280e+00
         vertex -1.800919e+01 3.620000e+01 9.970944e+00
      endloop
   endfacet
   facet normal 0.000000e+00 1.000000e+00 0.000000e+00
      outer loop
         vertex -1.800919e+01 3.620000e+01 9.970944e+00
         vertex -1.902717e+01 3.620000e+01 9.549280e+00
         vertex -1.871142e+01 3.620000e+01 9.742775e+00
      endloop
   endfacet
   facet normal 0.000000e+00 1.000000e+00 0.000000e+00
      outer loop
         vertex -1.800919e+01 3.620000e+01 9.970944e+00
         vertex -1.871142e+01 3.620000e+01 9.742775e+00
         vertex -1.836928e+01 3.620000e+01 9.884493e+00
      endloop
   endfacet
   facet normal -0.000000e+00 1.000000e+00 -0.000000e+00
      outer loop
         vertex -1.988449e+01 3.620000e+01 -8.369280e+00
         vertex -1.997094e+01 3.620000e+01 -8.009185e+00
         vertex -1.764000e+01 3.620000e+01 -1.000000e+01
      endloop
   endfacet
   facet normal 0.000000e+00 1.000000e+00 0.000000e+00
      outer loop
         vertex -1.764000e+01 3.620000e+01 -1.000000e+01
         vertex -1.997094e+01 3.620000e+01 -8.009185e+00
         vertex -2.000000e+01 3.620000e+01 -7.640000e+00
      endloop
   endfacet
   facet normal 0.000000e+00 1.000000e+00 -0.000000e+00
      outer loop
         vertex -1.764000e+01 3.620000e+01 -1.000000e+01
         vertex -2.000000e+01 3.620000e+01 -7.640000e+00
         vertex 1.764000e+01 3.620000e+01 -1.000000e+01
      endloop
   endfacet
   facet normal 0.000000e+00 1.000000e+00 -0.000000e+00
      outer loop
         vertex 1.764000e+01 3.620000e+01 -1.000000e+01
         vertex -2.000000e+01 3.620000e+01 -7.640000e+00
         vertex 2.000000e+01 3.620000e+01 -7.640000e+00
      endloop
   endfacet
   facet normal 0.000000e+00 1.000000e+00 0.000000e+00
      outer loop
         vertex 1.764000e+01 3.620000e+01 -1.000000e+01
         vertex 2.000000e+01 3.620000e+01 -7.640000e+00
         vertex 1.800919e+01 3.620000e+01 -9.970944e+00
      endloop
   endfacet
   facet normal 0.000000e+00 1.000000e+00 0.000000e+00
      outer loop
         vertex 1.800919e+01 3.620000e+01 -9.970944e+00
         vertex 2.000000e+01 3.620000e+01 -7.640000e+00
         vertex 1.997094e+01 3.620000e+01 -8.009185e+00
      endloop
   endfacet
   facet normal 0.000000e+00 1.000000e+00 0.000000e+00
      outer loop
         vertex 1.800919e+01 3.620000e+01 -9.970944e+00
         vertex 1.997094e+01 3.620000e+01 -8.009185e+00
         vertex 1.988449e+01 3.620000e+01 -8.369280e+00
      endloop
   endfacet
   facet normal 0.000000e+00 1.000000e+00 0.000000e+00
      outer loop
         vertex -1.988449e+01 3.620000e+01 -8.369280e+00
         vertex -1.764000e+01 3.620000e+01 -1.000000e+01
         vertex -1.974278e+01 3.620000e+01 -8.711417e+00
      endloop
   endfacet
   facet normal 0.000000e+00 1.000000e+00 0.000000e+00
      outer loop
         vertex -1.974278e+01 3.620000e+01 -8.711417e+00
         vertex -1.764000e+01 3.620000e+01 -1.000000e+01
         vertex -1.800919e+01 3.620000e+01 -9.970944e+00
      endloop
   endfacet
   facet normal 0.000000e+00 1.000000e+00 0.000000e+00
      outer loop
         vertex -1.974278e+01 3.620000e+01 -8.711417e+00
         vertex -1.800919e+01 3.620000e+01 -9.970944e+00
         vertex -1.836928e+01 3.620000e+01 -9.884493e+00
      endloop
   endfacet
   facet normal 0.000000e+00 1.000000e+00 0.000000e+00
      outer loop
         vertex -1.871142e+01 3.620000e+01 -9.742775e+00
         vertex -1.902717e+01 3.620000e+01 -9.549280e+00
         vertex -1.974278e+01 3.620000e+01 -8.711417e+00
      endloop
   endfacet
   facet normal 0.000000e+00 1.000000e+00 0.000000e+00
      outer loop
         vertex -1.974278e+01 3.620000e+01 -8.711417e+00
         vertex -1.902717e+01 3.620000e+01 -9.549280e+00
         vertex -1.930877e+01 3.620000e+01 -9.308772e+00
      endloop
   endfacet
   facet normal 0.000000e+00 1.000000e+00 0.000000e+00
      outer loop
         vertex -1.974278e+01 3.620000e+01 -8.711417e+00
         vertex -1.930877e+01 3.620000e+01 -9.308772e+00
         vertex -1.954928e+01 3.620000e+01 -9.027173e+00
      endloop
   endfacet
   facet normal 0.000000e+00 1.000000e+00 0.000000e+00
      outer loop
         vertex 1.800919e+01 3.620000e+01 9.970944e+00
         vertex 1.836928e+01 3.620000e+01 9.884493e+00
         vertex 1.930877e+01 3.620000e+01 9.308772e+00
      endloop
   endfacet
   facet normal 0.000000e+00 1.000000e+00 0.000000e+00
      outer loop
         vertex 1.930877e+01 3.620000e+01 9.308772e+00
         vertex 1.836928e+01 3.620000e+01 9.884493e+00
         vertex 1.871142e+01 3.620000e+01 9.742775e+00
      endloop
   endfacet
   facet normal 0.000000e+00 1.000000e+00 0.000000e+00
      outer loop
         vertex 1.930877e+01 3.620000e+01 9.308772e+00
         vertex 1.871142e+01 3.620000e+01 9.742775e+00
         vertex 1.902717e+01 3.620000e+01 9.549280e+00
      endloop
   endfacet
   facet normal 0.000000e+00 1.000000e+00 0.000000e+00
      outer loop
         vertex 1.988449e+01 3.620000e+01 -8.369280e+00
         vertex 1.974278e+01 3.620000e+01 -8.711417e+00
         vertex 1.800919e+01 3.620000e+01 -9.970944e+00
      endloop
   endfacet
   facet normal 0.000000e+00 1.000000e+00 0.000000e+00
      outer loop
         vertex 1.800919e+01 3.620000e+01 -9.970944e+00
         vertex 1.974278e+01 3.620000e+01 -8.711417e+00
         vertex 1.954928e+01 3.620000e+01 -9.027173e+00
      endloop
   endfacet
   facet normal 0.000000e+00 1.000000e+00 0.000000e+00
      outer loop
         vertex 1.800919e+01 3.620000e+01 -9.970944e+00
         vertex 1.954928e+01 3.620000e+01 -9.027173e+00
         vertex 1.930877e+01 3.620000e+01 -9.308772e+00
      endloop
   endfacet
   facet normal 0.000000e+00 1.000000e+00 0.000000e+00
      outer loop
         vertex 1.930877e+01 3.620000e+01 -9.308772e+00
         vertex 1.902717e+01 3.620000e+01 -9.549280e+00
         vertex 1.800919e+01 3.620000e+01 -9.970944e+00
      endloop
   endfacet
   facet normal 0.000000e+00 1.000000e+00 0.000000e+00
      outer loop
         vertex 1.800919e+01 3.620000e+01 -9.970944e+00
         vertex 1.902717e+01 3.620000e+01 -9.549280e+00
         vertex 1.871142e+01 3.620000e+01 -9.742775e+00
      endloop
   endfacet
   facet normal 0.000000e+00 1.000000e+00 0.000000e+00
      outer loop
         vertex 1.800919e+01 3.620000e+01 -9.970944e+00
         vertex 1.871142e+01 3.620000e+01 -9.742775e+00
         vertex 1.836928e+01 3.620000e+01 -9.884493e+00
      endloop
   endfacet
   facet normal 0.000000e+00 -1.000000e+00 0.000000e+00
      outer loop
         vertex 2.000000e+01 0.000000e+00 -7.640000e+00
         vertex 1.764000e+01 0.000000e+00 -1.000000e+01
         vertex 1.800919e+01 0.000000e+00 -9.970944e+00
      endloop
   endfacet
   facet normal 0.000000e+00 -1.000000e+00 0.000000e+00
      outer loop
         vertex 1.764000e+01 0.000000e+00 1.000000e+01
         vertex 2.000000e+01 0.000000e+00 -7.640000e+00
         vertex 2.000000e+01 0.000000e+00 7.640000e+00
      endloop
   endfacet
   facet normal 0.000000e+00 -1.000000e+00 0.000000e+00
      outer loop
         vertex -1.836928e+01 0.000000e+00 -9.884493e+00
         vertex -1.800919e+01 0.000000e+00 -9.970944e+00
         vertex -1.974278e+01 0.000000e+00 -8.711417e+00
      endloop
   endfacet
   facet normal 0.000000e+00 -1.000000e+00 0.000000e+00
      outer loop
         vertex 2.000000e+01 0.000000e+00 -7.640000e+00
         vertex 1.764000e+01 0.000000e+00 1.000000e+01
         vertex -2.000000e+01 0.000000e+00 -7.640000e+00
      endloop
   endfacet
   facet normal 0.000000e+00 -1.000000e+00 0.000000e+00
      outer loop
         vertex -2.000000e+01 0.000000e+00 -7.640000e+00
         vertex 1.764000e+01 0.000000e+00 1.000000e+01
         vertex -1.764000e+01 0.000000e+00 1.000000e+01
      endloop
   endfacet
   facet normal 0.000000e+00 -1.000000e+00 0.000000e+00
      outer loop
         vertex -2.000000e+01 0.000000e+00 -7.640000e+00
         vertex -1.764000e+01 0.000000e+00 1.000000e+01
         vertex -2.000000e+01 0.000000e+00 7.640000e+00
      endloop
   endfacet
   facet normal 0.000000e+00 -1.000000e+00 0.000000e+00
      outer loop
         vertex -1.974278e+01 0.000000e+00 -8.711417e+00
         vertex -1.800919e+01 0.000000e+00 -9.970944e+00
         vertex -1.988449e+01 0.000000e+00 -8.369280e+00
      endloop
   endfacet
   facet normal 0.000000e+00 -1.000000e+00 -0.000000e+00
      outer loop
         vertex -1.974278e+01 0.000000e+00 8.711417e+00
         vertex -1.988449e+01 0.000000e+00 8.369280e+00
         vertex -1.800919e+01 0.000000e+00 9.970944e+00
      endloop
   endfacet
   facet normal 0.000000e+00 -1.000000e+00 0.000000e+00
      outer loop
         vertex 1.902717e+01 0.000000e+00 -9.549280e+00
         vertex 1.930877e+01 0.000000e+00 -9.308772e+00
         vertex 1.954928e+01 0.000000e+00 -9.027173e+00
      endloop
   endfacet
   facet normal 0.000000e+00 -1.000000e+00 0.000000e+00
      outer loop
         vertex 2.000000e+01 0.000000e+00 7.640000e+00
         vertex 1.997094e+01 0.000000e+00 8.009185e+00
         vertex 1.764000e+01 0.000000e+00 1.000000e+01
      endloop
   endfacet
   facet normal 0.000000e+00 -1.000000e+00 0.000000e+00
      outer loop
         vertex 1.764000e+01 0.000000e+00 1.000000e+01
         vertex 1.997094e+01 0.000000e+00 8.009185e+00
         vertex 1.988449e+01 0.000000e+00 8.369280e+00
      endloop
   endfacet
   facet normal 0.000000e+00 -1.000000e+00 0.000000e+00
      outer loop
         vertex 1.764000e+01 0.000000e+00 1.000000e+01
         vertex 1.988449e+01 0.000000e+00 8.369280e+00
         vertex 1.974278e+01 0.000000e+00 8.711417e+00
      endloop
   endfacet
   facet normal 0.000000e+00 -1.000000e+00 0.000000e+00
      outer loop
         vertex 1.974278e+01 0.000000e+00 8.711417e+00
         vertex 1.954928e+01 0.000000e+00 9.027173e+00
         vertex 1.764000e+01 0.000000e+00 1.000000e+01
      endloop
   endfacet
   facet normal 0.000000e+00 -1.000000e+00 0.000000e+00
      outer loop
         vertex 1.764000e+01 0.000000e+00 1.000000e+01
         vertex 1.954928e+01 0.000000e+00 9.027173e+00
         vertex 1.930877e+01 0.000000e+00 9.308772e+00
      endloop
   endfacet
   facet normal 0.000000e+00 -1.000000e+00 0.000000e+00
      outer loop
         vertex 1.764000e+01 0.000000e+00 1.000000e+01
         vertex 1.930877e+01 0.000000e+00 9.308772e+00
         vertex 1.800919e+01 0.000000e+00 9.970944e+00
      endloop
   endfacet
   facet normal 0.000000e+00 -1.000000e+00 -0.000000e+00
      outer loop
         vertex -1.800919e+01 0.000000e+00 9.970944e+00
         vertex -1.988449e+01 0.000000e+00 8.369280e+00
         vertex -1.764000e+01 0.000000e+00 1.000000e+01
      endloop
   endfacet
   facet normal 0.000000e+00 -1.000000e+00 0.000000e+00
      outer loop
         vertex -1.764000e+01 0.000000e+00 1.000000e+01
         vertex -1.988449e+01 0.000000e+00 8.369280e+00
         vertex -1.997094e+01 0.000000e+00 8.009185e+00
      endloop
   endfacet
   facet normal 0.000000e+00 -1.000000e+00 0.000000e+00
      outer loop
         vertex -1.764000e+01 0.000000e+00 1.000000e+01
         vertex -1.997094e+01 0.000000e+00 8.009185e+00
         vertex -2.000000e+01 0.000000e+00 7.640000e+00
      endloop
   endfacet
   facet normal 0.000000e+00 -1.000000e+00 0.000000e+00
      outer loop
         vertex 1.764000e+01 0.000000e+00 -1.000000e+01
         vertex 2.000000e+01 0.000000e+00 -7.640000e+00
         vertex -1.764000e+01 0.000000e+00 -1.000000e+01
      endloop
   endfacet
   facet normal 0.000000e+00 -1.000000e+00 0.000000e+00
      outer loop
         vertex -1.764000e+01 0.000000e+00 -1.000000e+01
         vertex 2.000000e+01 0.000000e+00 -7.640000e+00
         vertex -2.000000e+01 0.000000e+00 -7.640000e+00
      endloop
   endfacet
   facet normal 0.000000e+00 -1.000000e+00 0.000000e+00
      outer loop
         vertex -1.764000e+01 0.000000e+00 -1.000000e+01
         vertex -2.000000e+01 0.000000e+00 -7.640000e+00
         vertex -1.800919e+01 0.000000e+00 -9.970944e+00
      endloop
   endfacet
   facet normal 0.000000e+00 -1.000000e+00 0.000000e+00
      outer loop
         vertex -1.800919e+01 0.000000e+00 -9.970944e+00
         vertex -2.000000e+01 0.000000e+00 -7.640000e+00
         vertex -1.997094e+01 0.000000e+00 -8.009185e+00
      endloop
   endfacet
   facet normal 0.000000e+00 -1.000000e+00 0.000000e+00
      outer loop
         vertex -1.800919e+01 0.000000e+00 -9.970944e+00
         vertex -1.997094e+01 0.000000e+00 -8.009185e+00
         vertex -1.988449e+01 0.000000e+00 -8.369280e+00
      endloop
   endfacet
   facet normal 0.000000e+00 -1.000000e+00 0.000000e+00
      outer loop
         vertex -1.974278e+01 0.000000e+00 -8.711417e+00
         vertex -1.954928e+01 0.000000e+00 -9.027173e+00
         vertex -1.930877e+01 0.000000e+00 -9.308772e+00
      endloop
   endfacet
   facet normal -0.000000e+00 -1.000000e+00 0.000000e+00
      outer loop
         vertex 1.836928e+01 0.000000e+00 -9.884493e+00
         vertex 1.988449e+01 0.000000e+00 -8.369280e+00
         vertex 1.800919e+01 0.000000e+00 -9.970944e+00
      endloop
   endfacet
   facet normal 0.000000e+00 -1.000000e+00 0.000000e+00
      outer loop
         vertex 1.800919e+01 0.000000e+00 -9.970944e+00
         vertex 1.988449e+01 0.000000e+00 -8.369280e+00
         vertex 1.997094e+01 0.000000e+00 -8.009185e+00
      endloop
   endfacet
   facet normal 0.000000e+00 -1.000000e+00 0.000000e+00
      outer loop
         vertex 1.800919e+01 0.000000e+00 -9.970944e+00
         vertex 1.997094e+01 0.000000e+00 -8.009185e+00
         vertex 2.000000e+01 0.000000e+00 -7.640000e+00
      endloop
   endfacet
   facet normal 0.000000e+00 -1.000000e+00 0.000000e+00
      outer loop
         vertex 1.836928e+01 0.000000e+00 -9.884493e+00
         vertex 1.871142e+01 0.000000e+00 -9.742775e+00
         vertex 1.988449e+01 0.000000e+00 -8.369280e+00
      endloop
   endfacet
   facet normal 0.000000e+00 -1.000000e+00 0.000000e+00
      outer loop
         vertex 1.988449e+01 0.000000e+00 -8.369280e+00
         vertex 1.871142e+01 0.000000e+00 -9.742775e+00
         vertex 1.902717e+01 0.000000e+00 -9.549280e+00
      endloop
   endfacet
   facet normal 0.000000e+00 -1.000000e+00 0.000000e+00
      outer loop
         vertex 1.988449e+01 0.000000e+00 -8.369280e+00
         vertex 1.902717e+01 0.000000e+00 -9.549280e+00
         vertex 1.974278e+01 0.000000e+00 -8.711417e+00
      endloop
   endfacet
   facet normal 0.000000e+00 -1.000000e+00 0.000000e+00
      outer loop
         vertex 1.974278e+01 0.000000e+00 -8.711417e+00
         vertex 1.902717e+01 0.000000e+00 -9.549280e+00
         vertex 1.954928e+01 0.000000e+00 -9.027173e+00
      endloop
   endfacet
   facet normal 0.000000e+00 -1.000000e+00 0.000000e+00
      outer loop
         vertex -1.930877e+01 0.000000e+00 -9.308772e+00
         vertex -1.902717e+01 0.000000e+00 -9.549280e+00
         vertex -1.974278e+01 0.000000e+00 -8.711417e+00
      endloop
   endfacet
   facet normal 0.000000e+00 -1.000000e+00 0.000000e+00
      outer loop
         vertex -1.974278e+01 0.000000e+00 -8.711417e+00
         vertex -1.902717e+01 0.000000e+00 -9.549280e+00
         vertex -1.871142e+01 0.000000e+00 -9.742775e+00
      endloop
   endfacet
   facet normal 0.000000e+00 -1.000000e+00 0.000000e+00
      outer loop
         vertex -1.974278e+01 0.000000e+00 -8.711417e+00
         vertex -1.871142e+01 0.000000e+00 -9.742775e+00
         vertex -1.836928e+01 0.000000e+00 -9.884493e+00
      endloop
   endfacet
   facet normal -0.000000e+00 -1.000000e+00 -0.000000e+00
      outer loop
         vertex 1.902717e+01 0.000000e+00 9.549280e+00
         vertex 1.871142e+01 0.000000e+00 9.742775e+00
         vertex 1.930877e+01 0.000000e+00 9.308772e+00
      endloop
   endfacet
   facet normal 0.000000e+00 -1.000000e+00 0.000000e+00
      outer loop
         vertex 1.930877e+01 0.000000e+00 9.308772e+00
         vertex 1.871142e+01 0.000000e+00 9.742775e+00
         vertex 1.836928e+01 0.000000e+00 9.884493e+00
      endloop
   endfacet
   facet normal 0.000000e+00 -1.000000e+00 0.000000e+00
      outer loop
         vertex 1.930877e+01 0.000000e+00 9.308772e+00
         vertex 1.836928e+01 0.000000e+00 9.884493e+00
         vertex 1.800919e+01 0.000000e+00 9.970944e+00
      endloop
   endfacet
   facet normal 0.000000e+00 -1.000000e+00 0.000000e+00
      outer loop
         vertex -1.902717e+01 0.000000e+00 9.549280e+00
         vertex -1.800919e+01 0.000000e+00 9.970944e+00
         vertex -1.871142e+01 0.000000e+00 9.742775e+00
      endloop
   endfacet
   facet normal 0.000000e+00 -1.000000e+00 0.000000e+00
      outer loop
         vertex -1.871142e+01 0.000000e+00 9.742775e+00
         vertex -1.800919e+01 0.000000e+00 9.970944e+00
         vertex -1.836928e+01 0.000000e+00 9.884493e+00
      endloop
   endfacet
   facet normal 0.000000e+00 -1.000000e+00 -0.000000e+00
      outer loop
         vertex -1.902717e+01 0.000000e+00 9.549280e+00
         vertex -1.930877e+01 0.000000e+00 9.308772e+00
         vertex -1.800919e+01 0.000000e+00 9.970944e+00
      endloop
   endfacet
   facet normal 0.000000e+00 -1.000000e+00 0.000000e+00
      outer loop
         vertex -1.800919e+01 0.000000e+00 9.970944e+00
         vertex -1.930877e+01 0.000000e+00 9.308772e+00
         vertex -1.954928e+01 0.000000e+00 9.027173e+00
      endloop
   endfacet
   facet normal 0.000000e+00 -1.000000e+00 0.000000e+00
      outer loop
         vertex -1.800919e+01 0.000000e+00 9.970944e+00
         vertex -1.954928e+01 0.000000e+00 9.027173e+00
         vertex -1.974278e+01 0.000000e+00 8.711417e+00
      endloop
   endfacet
   facet normal -7.845874e-02 -0.000000e+00 -9.969174e-01
      outer loop
         vertex -1.764000e+01 3.620000e+01 -1.000000e+01
         vertex -1.764000e+01 0.000000e+00 -1.000000e+01
         vertex -1.800919e+01 0.000000e+00 -9.970944e+00
      endloop
   endfacet
   facet normal -7.845874e-02 0.000000e+00 -9.969174e-01
      outer loop
         vertex -1.764000e+01 3.620000e+01 -1.000000e+01
         vertex -1.800919e+01 0.000000e+00 -9.970944e+00
         vertex -1.800919e+01 3.620000e+01 -9.970944e+00
      endloop
   endfacet
   facet normal -2.334454e-01 -0.000000e+00 -9.723699e-01
      outer loop
         vertex -1.800919e+01 3.620000e+01 -9.970944e+00
         vertex -1.800919e+01 0.000000e+00 -9.970944e+00
         vertex -1.836928e+01 0.000000e+00 -9.884493e+00
      endloop
   endfacet
   facet normal -2.334454e-01 0.000000e+00 -9.723699e-01
      outer loop
         vertex -1.800919e+01 3.620000e+01 -9.970944e+00
         vertex -1.836928e+01 0.000000e+00 -9.884493e+00
         vertex -1.836928e+01 3.620000e+01 -9.884493e+00
      endloop
   endfacet
   facet normal -3.826838e-01 -0.000000e+00 -9.238794e-01
      outer loop
         vertex -1.836928e+01 3.620000e+01 -9.884493e+00
         vertex -1.836928e+01 0.000000e+00 -9.884493e+00
         vertex -1.871142e+01 0.000000e+00 -9.742775e+00
      endloop
   endfacet
   facet normal -3.826838e-01 0.000000e+00 -9.238794e-01
      outer loop
         vertex -1.836928e+01 3.620000e+01 -9.884493e+00
         vertex -1.871142e+01 0.000000e+00 -9.742775e+00
         vertex -1.871142e+01 3.620000e+01 -9.742775e+00
      endloop
   endfacet
   facet normal -5.224986e-01 -0.000000e+00 -8.526401e-01
      outer loop
         vertex -1.871142e+01 3.620000e+01 -9.742775e+00
         vertex -1.871142e+01 0.000000e+00 -9.742775e+00
         vertex -1.902717e+01 0.000000e+00 -9.549280e+00
      endloop
   endfacet
   facet normal -5.224986e-01 0.000000e+00 -8.526401e-01
      outer loop
         vertex -1.871142e+01 3.620000e+01 -9.742775e+00
         vertex -1.902717e+01 0.000000e+00 -9.549280e+00
         vertex -1.902717e+01 3.620000e+01 -9.549280e+00
      endloop
   endfacet
   facet normal -6.494477e-01 -0.000000e+00 -7.604063e-01
      outer loop
         vertex -1.902717e+01 3.620000e+01 -9.549280e+00
         vertex -1.902717e+01 0.000000e+00 -9.549280e+00
         vertex -1.930877e+01 0.000000e+00 -9.308772e+00
      endloop
   endfacet
   facet normal -6.494477e-01 0.000000e+00 -7.604063e-01
      outer loop
         vertex -1.902717e+01 3.620000e+01 -9.549280e+00
         vertex -1.930877e+01 0.000000e+00 -9.308772e+00
         vertex -1.930877e+01 3.620000e+01 -9.308772e+00
      endloop
   endfacet
   facet normal -7.604061e-01 -0.000000e+00 -6.494479e-01
      outer loop
         vertex -1.930877e+01 3.620000e+01 -9.308772e+00
         vertex -1.930877e+01 0.000000e+00 -9.308772e+00
         vertex -1.954928e+01 0.000000e+00 -9.027173e+00
      endloop
   endfacet
   facet normal -7.604061e-01 0.000000e+00 -6.494479e-01
      outer loop
         vertex -1.930877e+01 3.620000e+01 -9.308772e+00
         vertex -1.954928e+01 0.000000e+00 -9.027173e+00
         vertex -1.954928e+01 3.620000e+01 -9.027173e+00
      endloop
   endfacet
   facet normal -8.526401e-01 -0.000000e+00 -5.224986e-01
      outer loop
         vertex -1.954928e+01 3.620000e+01 -9.027173e+00
         vertex -1.954928e+01 0.000000e+00 -9.027173e+00
         vertex -1.974278e+01 0.000000e+00 -8.711417e+00
      endloop
   endfacet
   facet normal -8.526401e-01 0.000000e+00 -5.224986e-01
      outer loop
         vertex -1.954928e+01 3.620000e+01 -9.027173e+00
         vertex -1.974278e+01 0.000000e+00 -8.711417e+00
         vertex -1.974278e+01 3.620000e+01 -8.711417e+00
      endloop
   endfacet
   facet normal -9.238799e-01 -0.000000e+00 -3.826826e-01
      outer loop
         vertex -1.974278e+01 3.620000e+01 -8.711417e+00
         vertex -1.974278e+01 0.000000e+00 -8.711417e+00
         vertex -1.988449e+01 0.000000e+00 -8.369280e+00
      endloop
   endfacet
   facet normal -9.238799e-01 0.000000e+00 -3.826826e-01
      outer loop
         vertex -1.974278e+01 3.620000e+01 -8.711417e+00
         vertex -1.988449e+01 0.000000e+00 -8.369280e+00
         vertex -1.988449e+01 3.620000e+01 -8.369280e+00
      endloop
   endfacet
   facet normal -9.723700e-01 -0.000000e+00 -2.334449e-01
      outer loop
         vertex -1.988449e+01 3.620000e+01 -8.369280e+00
         vertex -1.988449e+01 0.000000e+00 -8.369280e+00
         vertex -1.997094e+01 0.000000e+00 -8.009185e+00
      endloop
   endfacet
   facet normal -9.723700e-01 0.000000e+00 -2.334449e-01
      outer loop
         vertex -1.988449e+01 3.620000e+01 -8.369280e+00
         vertex -1.997094e+01 0.000000e+00 -8.009185e+00
         vertex -1.997094e+01 3.620000e+01 -8.009185e+00
      endloop
   endfacet
   facet normal -9.969174e-01 -0.000000e+00 -7.845884e-02
      outer loop
         vertex -1.997094e+01 3.620000e+01 -8.009185e+00
         vertex -1.997094e+01 0.000000e+00 -8.009185e+00
         vertex -2.000000e+01 0.000000e+00 -7.640000e+00
      endloop
   endfacet
   facet normal -9.969174e-01 0.000000e+00 -7.845884e-02
      outer loop
         vertex -1.997094e+01 3.620000e+01 -8.009185e+00
         vertex -2.000000e+01 0.000000e+00 -7.640000e+00
         vertex -2.000000e+01 3.620000e+01 -7.640000e+00
      endloop
   endfacet
   facet normal 9.969174e-01 0.000000e+00 -7.845884e-02
      outer loop
         vertex 2.000000e+01 3.620000e+01 -7.640000e+00
         vertex 2.000000e+01 0.000000e+00 -7.640000e+00
         vertex 1.997094e+01 0.000000e+00 -8.009185e+00
      endloop
   endfacet
   facet normal 9.969174e-01 0.000000e+00 -7.845884e-02
      outer loop
         vertex 2.000000e+01 3.620000e+01 -7.640000e+00
         vertex 1.997094e+01 0.000000e+00 -8.009185e+00
         vertex 1.997094e+01 3.620000e+01 -8.009185e+00
      endloop
   endfacet
   facet normal 9.723700e-01 0.000000e+00 -2.334449e-01
      outer loop
         vertex 1.997094e+01 3.620000e+01 -8.009185e+00
         vertex 1.997094e+01 0.000000e+00 -8.009185e+00
         vertex 1.988449e+01 0.000000e+00 -8.369280e+00
      endloop
   endfacet
   facet normal 9.723700e-01 0.000000e+00 -2.334449e-01
      outer loop
         vertex 1.997094e+01 3.620000e+01 -8.009185e+00
         vertex 1.988449e+01 0.000000e+00 -8.369280e+00
         vertex 1.988449e+01 3.620000e+01 -8.369280e+00
      endloop
   endfacet
   facet normal 9.238799e-01 0.000000e+00 -3.826826e-01
      outer loop
         vertex 1.988449e+01 3.620000e+01 -8.369280e+00
         vertex 1.988449e+01 0.000000e+00 -8.369280e+00
         vertex 1.974278e+01 0.000000e+00 -8.711417e+00
      endloop
   endfacet
   facet normal 9.238799e-01 0.000000e+00 -3.826826e-01
      outer loop
         vertex 1.988449e+01 3.620000e+01 -8.369280e+00
         vertex 1.974278e+01 0.000000e+00 -8.711417e+00
         vertex 1.974278e+01 3.620000e+01 -8.711417e+00
      endloop
   endfacet
   facet normal 8.526401e-01 0.000000e+00 -5.224986e-01
      outer loop
         vertex 1.974278e+01 3.620000e+01 -8.711417e+00
         vertex 1.974278e+01 0.000000e+00 -8.711417e+00
         vertex 1.954928e+01 0.000000e+00 -9.027173e+00
      endloop
   endfacet
   facet normal 8.526401e-01 0.000000e+00 -5.224986e-01
      outer loop
         vertex 1.974278e+01 3.620000e+01 -8.711417e+00
         vertex 1.954928e+01 0.000000e+00 -9.027173e+00
         vertex 1.954928e+01 3.620000e+01 -9.027173e+00
      endloop
   endfacet
   facet normal 7.604061e-01 0.000000e+00 -6.494479e-01
      outer loop
         vertex 1.954928e+01 3.620000e+01 -9.027173e+00
         vertex 1.954928e+01 0.000000e+00 -9.027173e+00
         vertex 1.930877e+01 0.000000e+00 -9.308772e+00
      endloop
   endfacet
   facet normal 7.604061e-01 0.000000e+00 -6.494479e-01
      outer loop
         vertex 1.954928e+01 3.620000e+01 -9.027173e+00
         vertex 1.930877e+01 0.000000e+00 -9.308772e+00
         vertex 1.930877e+01 3.620000e+01 -9.308772e+00
      endloop
   endfacet
   facet normal 6.494477e-01 0.000000e+00 -7.604063e-01
      outer loop
         vertex 1.930877e+01 3.620000e+01 -9.308772e+00
         vertex 1.930877e+01 0.000000e+00 -9.308772e+00
         vertex 1.902717e+01 0.000000e+00 -9.549280e+00
      endloop
   endfacet
   facet normal 6.494477e-01 0.000000e+00 -7.604063e-01
      outer loop
         vertex 1.930877e+01 3.620000e+01 -9.308772e+00
         vertex 1.902717e+01 0.000000e+00 -9.549280e+00
         vertex 1.902717e+01 3.620000e+01 -9.549280e+00
      endloop
   endfacet
   facet normal 5.224986e-01 0.000000e+00 -8.526401e-01
      outer loop
         vertex 1.902717e+01 3.620000e+01 -9.549280e+00
         vertex 1.902717e+01 0.000000e+00 -9.549280e+00
         vertex 1.871142e+01 0.000000e+00 -9.742775e+00
      endloop
   endfacet
   facet normal 5.224986e-01 0.000000e+00 -8.526401e-01
      outer loop
         vertex 1.902717e+01 3.620000e+01 -9.549280e+00
         vertex 1.871142e+01 0.000000e+00 -9.742775e+00
         vertex 1.871142e+01 3.620000e+01 -9.742775e+00
      endloop
   endfacet
   facet normal 3.826838e-01 0.000000e+00 -9.238794e-01
      outer loop
         vertex 1.871142e+01 3.620000e+01 -9.742775e+00
         vertex 1.871142e+01 0.000000e+00 -9.742775e+00
         vertex 1.836928e+01 0.000000e+00 -9.884493e+00
      endloop
   endfacet
   facet normal 3.826838e-01 0.000000e+00 -9.238794e-01
      outer loop
         vertex 1.871142e+01 3.620000e+01 -9.742775e+00
         vertex 1.836928e+01 0.000000e+00 -9.884493e+00
         vertex 1.836928e+01 3.620000e+01 -9.884493e+00
      endloop
   endfacet
   facet normal 2.334454e-01 0.000000e+00 -9.723699e-01
      outer loop
         vertex 1.836928e+01 3.620000e+01 -9.884493e+00
         vertex 1.836928e+01 0.000000e+00 -9.884493e+00
         vertex 1.800919e+01 0.000000e+00 -9.970944e+00
      endloop
   endfacet
   facet normal 2.334454e-01 0.000000e+00 -9.723699e-01
      outer loop
         vertex 1.836928e+01 3.620000e+01 -9.884493e+00
         vertex 1.800919e+01 0.000000e+00 -9.970944e+00
         vertex 1.800919e+01 3.620000e+01 -9.970944e+00
      endloop
   endfacet
   facet normal 7.845874e-02 0.000000e+00 -9.969174e-01
      outer loop
         vertex 1.800919e+01 3.620000e+01 -9.970944e+00
         vertex 1.800919e+01 0.000000e+00 -9.970944e+00
         vertex 1.764000e+01 0.000000e+00 -1.000000e+01
      endloop
   endfacet
   facet normal 7.845874e-02 0.000000e+00 -9.969174e-01
      outer loop
         vertex 1.800919e+01 3.620000e+01 -9.970944e+00
         vertex 1.764000e+01 0.000000e+00 -1.000000e+01
         vertex 1.764000e+01 3.620000e+01 -1.000000e+01
      endloop
   endfacet
   facet normal -9.969174e-01 0.000000e+00 7.845884e-02
      outer loop
         vertex -2.000000e+01 3.620000e+01 7.640000e+00
         vertex -2.000000e+01 0.000000e+00 7.640000e+00
         vertex -1.997094e+01 0.000000e+00 8.009185e+00
      endloop
   endfacet
   facet normal -9.969174e-01 0.000000e+00 7.845884e-02
      outer loop
         vertex -2.000000e+01 3.620000e+01 7.640000e+00
         vertex -1.997094e+01 0.000000e+00 8.009185e+00
         vertex -1.997094e+01 3.620000e+01 8.009185e+00
      endloop
   endfacet
   facet normal -9.723700e-01 0.000000e+00 2.334449e-01
      outer loop
         vertex -1.997094e+01 3.620000e+01 8.009185e+00
         vertex -1.997094e+01 0.000000e+00 8.009185e+00
         vertex -1.988449e+01 0.000000e+00 8.369280e+00
      endloop
   endfacet
   facet normal -9.723700e-01 0.000000e+00 2.334449e-01
      outer loop
         vertex -1.997094e+01 3.620000e+01 8.009185e+00
         vertex -1.988449e+01 0.000000e+00 8.369280e+00
         vertex -1.988449e+01 3.620000e+01 8.369280e+00
      endloop
   endfacet
   facet normal -9.238799e-01 0.000000e+00 3.826826e-01
      outer loop
         vertex -1.988449e+01 3.620000e+01 8.369280e+00
         vertex -1.988449e+01 0.000000e+00 8.369280e+00
         vertex -1.974278e+01 0.000000e+00 8.711417e+00
      endloop
   endfacet
   facet normal -9.238799e-01 0.000000e+00 3.826826e-01
      outer loop
         vertex -1.988449e+01 3.620000e+01 8.369280e+00
         vertex -1.974278e+01 0.000000e+00 8.711417e+00
         vertex -1.974278e+01 3.620000e+01 8.711417e+00
      endloop
   endfacet
   facet normal -8.526401e-01 0.000000e+00 5.224986e-01
      outer loop
         vertex -1.974278e+01 3.620000e+01 8.711417e+00
         vertex -1.974278e+01 0.000000e+00 8.711417e+00
         vertex -1.954928e+01 0.000000e+00 9.027173e+00
      endloop
   endfacet
   facet normal -8.526401e-01 0.000000e+00 5.224986e-01
      outer loop
         vertex -1.974278e+01 3.620000e+01 8.711417e+00
         vertex -1.954928e+01 0.000000e+00 9.027173e+00
         vertex -1.954928e+01 3.620000e+01 9.027173e+00
      endloop
   endfacet
   facet normal -7.604061e-01 0.000000e+00 6.494479e-01
      outer loop
         vertex -1.954928e+01 3.620000e+01 9.027173e+00
         vertex -1.954928e+01 0.000000e+00 9.027173e+00
         vertex -1.930877e+01 0.000000e+00 9.308772e+00
      endloop
   endfacet
   facet normal -7.604061e-01 0.000000e+00 6.494479e-01
      outer loop
         vertex -1.954928e+01 3.620000e+01 9.027173e+00
         vertex -1.930877e+01 0.000000e+00 9.308772e+00
         vertex -1.930877e+01 3.620000e+01 9.308772e+00
      endloop
   endfacet
   facet normal -6.494477e-01 0.000000e+00 7.604063e-01
      outer loop
         vertex -1.930877e+01 3.620000e+01 9.308772e+00
         vertex -1.930877e+01 0.000000e+00 9.308772e+00
         vertex -1.902717e+01 0.000000e+00 9.549280e+00
      endloop
   endfacet
   facet normal -6.494477e-01 0.000000e+00 7.604063e-01
      outer loop
         vertex -1.930877e+01 3.620000e+01 9.308772e+00
         vertex -1.902717e+01 0.000000e+00 9.549280e+00
         vertex -1.902717e+01 3.620000e+01 9.549280e+00
      endloop
   endfacet
   facet normal -5.224986e-01 0.000000e+00 8.526401e-01
      outer loop
         vertex -1.902717e+01 3.620000e+01 9.549280e+00
         vertex -1.902717e+01 0.000000e+00 9.549280e+00
         vertex -1.871142e+01 0.000000e+00 9.742775e+00
      endloop
   endfacet
   facet normal -5.224986e-01 0.000000e+00 8.526401e-01
      outer loop
         vertex -1.902717e+01 3.620000e+01 9.549280e+00
         vertex -1.871142e+01 0.000000e+00 9.742775e+00
         vertex -1.871142e+01 3.620000e+01 9.742775e+00
      endloop
   endfacet
   facet normal -3.826838e-01 0.000000e+00 9.238794e-01
      outer loop
         vertex -1.871142e+01 3.620000e+01 9.742775e+00
         vertex -1.871142e+01 0.000000e+00 9.742775e+00
         vertex -1.836928e+01 0.000000e+00 9.884493e+00
      endloop
   endfacet
   facet normal -3.826838e-01 0.000000e+00 9.238794e-01
      outer loop
         vertex -1.871142e+01 3.620000e+01 9.742775e+00
         vertex -1.836928e+01 0.000000e+00 9.884493e+00
         vertex -1.836928e+01 3.620000e+01 9.884493e+00
      endloop
   endfacet
   facet normal -2.334454e-01 0.000000e+00 9.723699e-01
      outer loop
         vertex -1.836928e+01 3.620000e+01 9.884493e+00
         vertex -1.836928e+01 0.000000e+00 9.884493e+00
         vertex -1.800919e+01 0.000000e+00 9.970944e+00
      endloop
   endfacet
   facet normal -2.334454e-01 0.000000e+00 9.723699e-01
      outer loop
         vertex -1.836928e+01 3.620000e+01 9.884493e+00
         vertex -1.800919e+01 0.000000e+00 9.970944e+00
         vertex -1.800919e+01 3.620000e+01 9.970944e+00
      endloop
   endfacet
   facet normal -7.845874e-02 0.000000e+00 9.969174e-01
      outer loop
         vertex -1.800919e+01 3.620000e+01 9.970944e+00
         vertex -1.800919e+01 0.000000e+00 9.970944e+00
         vertex -1.764000e+01 0.000000e+00 1.000000e+01
      endloop
   endfacet
   facet normal -7.845874e-02 0.000000e+00 9.969174e-01
      outer loop
         vertex -1.800919e+01 3.620000e+01 9.970944e+00
         vertex -1.764000e+01 0.000000e+00 1.000000e+01
         vertex -1.764000e+01 3.620000e+01 1.000000e+01
      endloop
   endfacet
   facet normal 7.845874e-02 0.000000e+00 9.969174e-01
      outer loop
         vertex 1.764000e+01 3.620000e+01 1.000000e+01
         vertex 1.764000e+01 0.000000e+00 1.000000e+01
         vertex 1.800919e+01 0.000000e+00 9.970944e+00
      endloop
   endfacet
   facet normal 7.845874e-02 0.000000e+00 9.969174e-01
      outer loop
         vertex 1.764000e+01 3.620000e+01 1.000000e+01
         vertex 1.800919e+01 0.000000e+00 9.970944e+00
         vertex 1.800919e+01 3.620000e+01 9.970944e+00
      endloop
   endfacet
   facet normal 2.334454e-01 0.000000e+00 9.723699e-01
      outer loop
         vertex 1.800919e+01 3.620000e+01 9.970944e+00
         vertex 1.800919e+01 0.000000e+00 9.970944e+00
         vertex 1.836928e+01 0.000000e+00 9.884493e+00
      endloop
   endfacet
   facet normal 2.334454e-01 0.000000e+00 9.723699e-01
      outer loop
         vertex 1.800919e+01 3.620000e+01 9.970944e+00
         vertex 1.836928e+01 0.000000e+00 9.884493e+00
         vertex 1.836928e+01 3.620000e+01 9.884493e+00
      endloop
   endfacet
   facet normal 3.826838e-01 0.000000e+00 9.238794e-01
      outer loop
         vertex 1.836928e+01 3.620000e+01 9.884493e+00
         vertex 1.836928e+01 0.000000e+00 9.884493e+00
         vertex 1.871142e+01 0.000000e+00 9.742775e+00
      endloop
   endfacet
   facet normal 3.826838e-01 0.000000e+00 9.238794e-01
      outer loop
         vertex 1.836928e+01 3.620000e+01 9.884493e+00
         vertex 1.871142e+01 0.000000e+00 9.742775e+00
         vertex 1.871142e+01 3.620000e+01 9.742775e+00
      endloop
   endfacet
   facet normal 5.224986e-01 0.000000e+00 8.526401e-01
      outer loop
         vertex 1.871142e+01 3.620000e+01 9.742775e+00
         vertex 1.871142e+01 0.000000e+00 9.742775e+00
         vertex 1.902717e+01 0.000000e+00 9.549280e+00
      endloop
   endfacet
   facet normal 5.224986e-01 0.000000e+00 8.526401e-01
      outer loop
         vertex 1.871142e+01 3.620000e+01 9.742775e+00
         vertex 1.902717e+01 0.000000e+00 9.549280e+00
         vertex 1.902717e+01 3.620000e+01 9.549280e+00
      endloop
   endfacet
   facet normal 6.494477e-01 0.000000e+00 7.604063e-01
      outer loop
         vertex 1.902717e+01 3.620000e+01 9.549280e+00
         vertex 1.902717e+01 0.000000e+00 9.549280e+00
         vertex 1.930877e+01 0.000000e+00 9.308772e+00
      endloop
   endfacet
   facet normal 6.494477e-01 0.000000e+00 7.604063e-01
      outer loop
         vertex 1.902717e+01 3.620000e+01 9.549280e+00
         vertex 1.930877e+01 0.000000e+00 9.308772e+00
         vertex 1.930877e+01 3.620000e+01 9.308772e+00
      endloop
   endfacet
   facet normal 7.604061e-01 0.000000e+00 6.494479e-01
      outer loop
         vertex 1.930877e+01 3.620000e+01 9.308772e+00
         vertex 1.930877e+01 0.000000e+00 9.308772e+00
         vertex 1.954928e+01 0.000000e+00 9.027173e+00
      endloop
   endfacet
   facet normal 7.604061e-01 0.000000e+00 6.494479e-01
      outer loop
         vertex 1.930877e+01 3.620000e+01 9.308772e+00
         vertex 1.954928e+01 0.000000e+00 9.027173e+00
         vertex 1.954928e+01 3.620000e+01 9.027173e+00
      endloop
   endfacet
   facet normal 8.526401e-01 0.000000e+00 5.224986e-01
      outer loop
         vertex 1.954928e+01 3.620000e+01 9.027173e+00
         vertex 1.954928e+01 0.000000e+00 9.027173e+00
         vertex 1.974278e+01 0.000000e+00 8.711417e+00
      endloop
   endfacet
   facet normal 8.526401e-01 0.000000e+00 5.224986e-01
      outer loop
         vertex 1.954928e+01 3.620000e+01 9.027173e+00
         vertex 1.974278e+01 0.000000e+00 8.711417e+00
         vertex 1.974278e+01 3.620000e+01 8.711417e+00
      endloop
   endfacet
   facet normal 9.238799e-01 0.000000e+00 3.826826e-01
      outer loop
         vertex 1.974278e+01 3.620000e+01 8.711417e+00
         vertex 1.974278e+01 0.000000e+00 8.711417e+00
         vertex 1.988449e+01 0.000000e+00 8.369280e+00
      endloop
   endfacet
   facet normal 9.238799e-01 0.000000e+00 3.826826e-01
      outer loop
         vertex 1.974278e+01 3.620000e+01 8.711417e+00
         vertex 1.988449e+01 0.000000e+00 8.369280e+00
         vertex 1.988449e+01 3.620000e+01 8.369280e+00
      endloop
   endfacet
   facet normal 9.723700e-01 0.000000e+00 2.334449e-01
      outer loop
         vertex 1.988449e+01 3.620000e+01 8.369280e+00
         vertex 1.988449e+01 0.000000e+00 8.369280e+00
         vertex 1.997094e+01 0.000000e+00 8.009185e+00
      endloop
   endfacet
   facet normal 9.723700e-01 0.000000e+00 2.334449e-01
      outer loop
         vertex 1.988449e+01 3.620000e+01 8.369280e+00
         vertex 1.997094e+01 0.000000e+00 8.009185e+00
         vertex 1.997094e+01 3.620000e+01 8.009185e+00
      endloop
   endfacet
   facet normal 9.969174e-01 0.000000e+00 7.845884e-02
      outer loop
         vertex 1.997094e+01 3.620000e+01 8.009185e+00
         vertex 1.997094e+01 0.000000e+00 8.009185e+00
         vertex 2.000000e+01 0.000000e+00 7.640000e+00
      endloop
   endfacet
   facet normal 9.969174e-01 0.000000e+00 7.845884e-02
      outer loop
         vertex 1.997094e+01 3.620000e+01 8.009185e+00
         vertex 2.000000e+01 0.000000e+00 7.640000e+00
         vertex 2.000000e+01 3.620000e+01 7.640000e+00
      endloop
   endfacet
endsolid